<?xml version="1.0" encoding="UTF-8" standalone="no"?>
<!-- Created with Inkscape (http://www.inkscape.org/) -->

<svg
   xmlns:dc="http://purl.org/dc/elements/1.1/"
   xmlns:cc="http://creativecommons.org/ns#"
   xmlns:rdf="http://www.w3.org/1999/02/22-rdf-syntax-ns#"
   xmlns:svg="http://www.w3.org/2000/svg"
   xmlns="http://www.w3.org/2000/svg"
   xmlns:sodipodi="http://sodipodi.sourceforge.net/DTD/sodipodi-0.dtd"
   xmlns:inkscape="http://www.inkscape.org/namespaces/inkscape"
   id="svg4206"
   version="1.1"
   inkscape:version="0.91 r13725"
   width="2629.2134"
   height="2022.4719"
   viewBox="0 0 2629.2134 2022.4719"
   sodipodi:docname="background.svg"
   inkscape:export-filename="/home/tigert/SparkleShare/doing/tendrl/logo/patternfly-login/bg-login-brighter.png"
   inkscape:export-xdpi="89"
   inkscape:export-ydpi="89">
  <metadata
     id="metadata4212">
    <rdf:RDF>
      <cc:Work
         rdf:about="">
        <dc:format>image/svg+xml</dc:format>
        <dc:type
           rdf:resource="http://purl.org/dc/dcmitype/StillImage" />
        <dc:title />
      </cc:Work>
    </rdf:RDF>
  </metadata>
  <defs
     id="defs4210">
    <filter
       inkscape:collect="always"
       style="color-interpolation-filters:sRGB"
       id="filter4164"
       x="-0.12760047"
       width="1.2552009"
       y="-0.13416411"
       height="1.2683282">
      <feGaussianBlur
         inkscape:collect="always"
         stdDeviation="92.384924"
         id="feGaussianBlur4166" />
    </filter>
  </defs>
  <sodipodi:namedview
     pagecolor="#454545"
     bordercolor="#666666"
     borderopacity="1"
     objecttolerance="10"
     gridtolerance="10"
     guidetolerance="10"
     inkscape:pageopacity="0"
     inkscape:pageshadow="2"
     inkscape:window-width="1920"
     inkscape:window-height="1016"
     id="namedview4208"
     showgrid="false"
     borderlayer="true"
     inkscape:showpageshadow="false"
     inkscape:snap-page="true"
     inkscape:zoom="0.22627417"
     inkscape:cx="575.00281"
     inkscape:cy="1014.3514"
     inkscape:window-x="0"
     inkscape:window-y="27"
     inkscape:window-maximized="1"
     inkscape:current-layer="svg4206" />
  <path
     id="path4134"
     d="m 1602.2789,429.84054 c -62.1237,0.44233 -125.1308,7.71508 -188.2766,22.48369 -201.9027,48.47023 -373.0257,174.22135 -480.20079,336.22676 -107.98139,163.23051 -152.85938,365.81431 -101.26657,568.32111 34.61079,131.3795 110.44852,245.5519 208.12016,327.412 98.0863,82.2048 219.6305,133.0708 347.7231,137.3801 52.2741,3.4916 105.8369,-0.8105 159.4877,-13.9207 120.5728,-29.7765 225.0442,-105.6814 290.9858,-204.7709 66.315,-99.6601 94.6409,-224.4405 60.9422,-350.486 -25.1596,-92.8878 -85.3658,-173.3867 -162.7735,-223.5936 -77.982,-50.57754 -175.0314,-71.34668 -272.1439,-42.81217 -68.7437,20.56037 -128.006,67.14907 -164.0951,126.05287 -36.4323,59.4673 -50.0103,132.8881 -25.9165,205.4413 16.6136,48.7953 51.4128,90.497 94.4406,115.3958 43.4948,25.1718 96.3941,33.6661 147.932,13.863 32.215,-12.8516 59.4216,-37.7777 74.8868,-67.645 15.703,-30.3277 19.658,-66.5453 3.7475,-100.7636 -9.5034,-19.2349 -26.2215,-35.2346 -45.3053,-43.6725 -19.5287,-8.632 -42.1498,-9.5757 -62.2638,2.5957 -9.4882,6.4327 -17.037,16.6552 -20.2652,27.3441 -1.3599,4.508 -2.0083,9.2259 -1.654,13.8996 0.3022,6.6976 2.6692,13.1277 7.3701,18.5906 3.4012,3.1603 8.4883,5.4924 13.0846,5.9685 5.006,0.5275 9.2247,-1.1169 11.2633,-5.2971 l 0,0 c -3.3547,2.8585 -7.0101,1.7513 -9.6503,0.1372 -2.8588,-1.8236 -5.388,-4.9448 -5.8618,-7.2424 -2.2901,-3.9949 -2.6583,-7.9569 -2.0112,-11.5995 0.5908,-2.6155 1.7626,-5.1955 3.3504,-7.6206 3.9263,-5.987 10.2673,-10.7319 15.9944,-12.3104 12.5419,-5.3413 25.2038,-2.6719 35.9255,4.2075 11.1683,7.1688 19.9561,18.7918 23.573,30.5669 7.9815,21.8638 3.5196,43.7499 -8.2697,62.117 -12.0914,18.8384 -31.586,33.4229 -52.2963,39.502 -34.3415,11.0178 -68.6228,3.5421 -97.2045,-15.4068 -29.0651,-19.2668 -51.4058,-49.9345 -60.5879,-83.3636 -14.8005,-51.2256 -3.1938,-101.5576 24.7035,-143.097 28.2823,-42.1115 72.5614,-73.8971 121.8684,-86.4235 71.0749,-18.658 140.9329,-1.5464 198.1964,38.1251 57.8446,40.0727 101.3051,102.2179 117.9106,171.8205 23.3945,95.9278 -0.1373,189.6551 -53.218,265.5675 -53.5077,76.4842 -136.0615,133.2907 -228.9128,153.9616 -42.2721,9.561 -84.0097,12.1027 -124.4605,8.6244 -98.1771,-12.6735 -187.6242,-61.1278 -256.5245,-130.8053 -69.3262,-70.1057 -116.6619,-160.4013 -132.6918,-256.7133 -27.02803,-150.358 17.5382,-292.31 103.6939,-402.96844 87.1297,-111.91033 215.0066,-189.68094 354.464,-212.20392 176.8432,-30.40004 345.1626,22.83715 477.5193,126.74404 133.8101,105.04337 227.4606,259.19382 254.6631,428.23822 29.5392,180.4254 -13.6657,357.0633 -106.3725,504.153 -92.8047,147.2394 -233.4174,261.9762 -396.9643,320.6076 l 629.9762,0 c 32.0363,-43.0576 61.1842,-88.0336 86.7998,-134.7621 123.2518,-224.8366 170.9526,-490.7355 111.8388,-754.835 C 2467.1477,942.15197 2315.0809,727.91577 2116.7732,591.58012 1966.9909,488.60845 1788.6407,428.57053 1602.2789,429.91444 Z"
     style="color:#000000;clip-rule:nonzero;display:inline;overflow:visible;visibility:visible;opacity:1;isolation:auto;mix-blend-mode:normal;color-interpolation:sRGB;color-interpolation-filters:linearRGB;solid-color:#000000;solid-opacity:1;fill:#000000;fill-opacity:0.15048547;fill-rule:evenodd;stroke:none;stroke-width:6.88436937;stroke-linecap:round;stroke-linejoin:miter;stroke-miterlimit:4;stroke-dasharray:none;stroke-dashoffset:0;stroke-opacity:1;filter:url(#filter4164);color-rendering:auto;image-rendering:auto;shape-rendering:auto;text-rendering:auto;enable-background:accumulate"
     inkscape:connector-curvature="0" />
  <rect
     style="color:#000000;clip-rule:nonzero;display:inline;overflow:visible;visibility:visible;opacity:0.99100001;isolation:auto;mix-blend-mode:normal;color-interpolation:sRGB;color-interpolation-filters:linearRGB;solid-color:#000000;solid-opacity:1;fill:#111314;fill-opacity:0;fill-rule:nonzero;stroke:none;stroke-width:18;stroke-linecap:butt;stroke-miterlimit:4;stroke-dasharray:none;stroke-opacity:1;marker:none;color-rendering:auto;image-rendering:auto;shape-rendering:auto;text-rendering:auto;enable-background:accumulate"
     id="rect5932"
     width="2629.2134"
     height="2022.4719"
     x="0"
     y="0"
     rx="1.49259"
     ry="1.49259" />
  <path
     inkscape:connector-curvature="0"
     style="color:#000000;clip-rule:nonzero;display:inline;overflow:visible;visibility:visible;opacity:1;isolation:auto;mix-blend-mode:normal;color-interpolation:sRGB;color-interpolation-filters:linearRGB;solid-color:#000000;solid-opacity:1;fill:#6d6d6d;fill-opacity:0.22330095;fill-rule:evenodd;stroke:none;stroke-width:6.88436937;stroke-linecap:round;stroke-linejoin:miter;stroke-miterlimit:4;stroke-dasharray:none;stroke-dashoffset:0;stroke-opacity:1;color-rendering:auto;image-rendering:auto;shape-rendering:auto;text-rendering:auto;enable-background:accumulate"
     d="m 1602.2789,369.84054 c -62.1237,0.44233 -125.1308,7.71508 -188.2766,22.48369 -201.9027,48.47023 -373.0257,174.22135 -480.20079,336.22676 -107.98139,163.23051 -152.85938,365.81431 -101.26657,568.32111 34.61079,131.3795 110.44852,245.5519 208.12016,327.412 98.0863,82.2048 219.6305,133.0708 347.7231,137.3801 52.2741,3.4916 105.8369,-0.8105 159.4877,-13.9207 120.5728,-29.7765 225.0442,-105.6814 290.9858,-204.7709 66.315,-99.6601 94.6409,-224.4405 60.9422,-350.486 -25.1596,-92.8878 -85.3658,-173.3867 -162.7735,-223.59363 -77.982,-50.57751 -175.0314,-71.34665 -272.1439,-42.81214 -68.7437,20.56036 -128.006,67.14909 -164.0951,126.05287 -36.4323,59.4673 -50.0103,132.8881 -25.9165,205.4413 16.6136,48.7953 51.4128,90.497 94.4406,115.3958 43.4948,25.1718 96.3941,33.6661 147.932,13.863 32.215,-12.8516 59.4216,-37.7777 74.8868,-67.645 15.703,-30.3277 19.658,-66.5453 3.7475,-100.7636 -9.5034,-19.2349 -26.2215,-35.2346 -45.3053,-43.6725 -19.5287,-8.632 -42.1498,-9.5757 -62.2638,2.5957 -9.4882,6.4327 -17.037,16.6552 -20.2652,27.3441 -1.3599,4.508 -2.0083,9.2259 -1.654,13.8996 0.3022,6.6976 2.6692,13.1277 7.3701,18.5906 3.4012,3.1603 8.4883,5.4924 13.0846,5.9685 5.006,0.5275 9.2247,-1.1169 11.2633,-5.2971 l 0,0 c -3.3547,2.8585 -7.0101,1.7513 -9.6503,0.1372 -2.8588,-1.8236 -5.388,-4.9448 -5.8618,-7.2424 -2.2901,-3.9949 -2.6583,-7.9569 -2.0112,-11.5995 0.5908,-2.6155 1.7626,-5.1955 3.3504,-7.6206 3.9263,-5.987 10.2673,-10.7319 15.9944,-12.3104 12.5419,-5.3413 25.2038,-2.6719 35.9255,4.2075 11.1683,7.1688 19.9561,18.7918 23.573,30.5669 7.9815,21.8638 3.5196,43.7499 -8.2697,62.117 -12.0914,18.8384 -31.586,33.4229 -52.2963,39.502 -34.3415,11.0178 -68.6228,3.5421 -97.2045,-15.4068 -29.0651,-19.2668 -51.4058,-49.9345 -60.5879,-83.3636 -14.8005,-51.2256 -3.1938,-101.5576 24.7035,-143.097 28.2823,-42.1115 72.5614,-73.8971 121.8684,-86.4235 71.0749,-18.65796 140.9329,-1.5464 198.1964,38.1251 57.8446,40.0727 101.3051,102.2179 117.9106,171.8205 23.3945,95.9278 -0.1373,189.6551 -53.218,265.5675 -53.5077,76.4842 -136.0615,133.2907 -228.9128,153.9616 -42.2721,9.561 -84.0097,12.1027 -124.4605,8.6244 -98.1771,-12.6735 -187.6242,-61.1278 -256.5245,-130.8053 -69.3262,-70.1057 -116.6619,-160.4013 -132.6918,-256.7133 -27.02803,-150.358 17.5382,-292.30997 103.6939,-402.96844 87.1297,-111.91033 215.0066,-189.68094 354.464,-212.20392 176.8432,-30.40004 345.1626,22.83715 477.5193,126.74404 133.8101,105.04337 227.4606,259.19382 254.6631,428.23822 29.5392,180.4254 -13.6657,357.0633 -106.3725,504.153 -92.8047,147.2394 -233.4174,261.9762 -396.9643,320.6076 l 629.9762,0 c 32.0363,-43.0576 61.1842,-88.0336 86.7998,-134.7621 123.2518,-224.8366 170.9526,-490.7355 111.8388,-754.835 C 2467.1477,882.15197 2315.0809,667.91577 2116.7732,531.58012 1966.9909,428.60845 1788.6407,368.57053 1602.2789,369.91444 Z"
     id="path4223" />
</svg>
