<?xml version="1.0" encoding="UTF-8" standalone="no"?>
<!-- Created with Inkscape (http://www.inkscape.org/) -->

<svg
   xmlns:dc="http://purl.org/dc/elements/1.1/"
   xmlns:cc="http://creativecommons.org/ns#"
   xmlns:rdf="http://www.w3.org/1999/02/22-rdf-syntax-ns#"
   xmlns:svg="http://www.w3.org/2000/svg"
   xmlns="http://www.w3.org/2000/svg"
   xmlns:sodipodi="http://sodipodi.sourceforge.net/DTD/sodipodi-0.dtd"
   xmlns:inkscape="http://www.inkscape.org/namespaces/inkscape"
   width="188"
   height="40"
   viewBox="0 0 188 40"
   id="svg4255"
   version="1.1"
   inkscape:version="0.91 r13725"
   sodipodi:docname="logo-horizontal-inverted.svg">
  <defs
     id="defs4257" />
  <sodipodi:namedview
     id="base"
     pagecolor="#262626"
     bordercolor="#666666"
     borderopacity="0.18431373"
     inkscape:pageopacity="0"
     inkscape:pageshadow="2"
     inkscape:zoom="2.8284271"
     inkscape:cx="151.68173"
     inkscape:cy="-25.9163"
     inkscape:document-units="px"
     inkscape:current-layer="layer1"
     showgrid="false"
     units="px"
     inkscape:snap-global="true"
     inkscape:snap-bbox="true"
     inkscape:bbox-paths="true"
     inkscape:snap-bbox-edge-midpoints="true"
     inkscape:snap-bbox-midpoints="true"
     inkscape:bbox-nodes="true"
     inkscape:window-width="2560"
     inkscape:window-height="1376"
     inkscape:window-x="0"
     inkscape:window-y="27"
     inkscape:window-maximized="1"
     inkscape:showpageshadow="false"
     borderlayer="true"
     showguides="true"
     inkscape:guide-bbox="true">
    <inkscape:grid
       type="xygrid"
       id="grid4817" />
  </sodipodi:namedview>
  <metadata
     id="metadata4260">
    <rdf:RDF>
      <cc:Work
         rdf:about="">
        <dc:format>image/svg+xml</dc:format>
        <dc:type
           rdf:resource="http://purl.org/dc/dcmitype/StillImage" />
        <dc:title></dc:title>
      </cc:Work>
    </rdf:RDF>
  </metadata>
  <g
     inkscape:label="Layer 1"
     inkscape:groupmode="layer"
     id="layer1"
     transform="translate(0,-1012.3622)">
    <g
       style="font-style:normal;font-variant:normal;font-weight:bold;font-stretch:normal;font-size:31.48040771px;line-height:1000%;font-family:Overpass;-inkscape-font-specification:'Overpass, Bold';text-align:center;letter-spacing:-9.69596577px;word-spacing:0px;writing-mode:lr-tb;text-anchor:middle;fill:#dad9d6;fill-opacity:1"
       id="text4225">
      <path
         d="m 52.319613,1029.4048 6.34645,0 0,-4.0799 -6.34645,0 0,-7.5704 -5.07716,0 0,23.7538 c 0,5.3039 3.717206,8.2958 7.751735,8.2958 2.039931,0 4.170525,-0.7707 5.983796,-2.4026 l -2.085262,-3.5812 c -0.815972,0.8613 -1.903935,1.5866 -3.263889,1.5866 -1.994599,0 -3.30922,-1.496 -3.30922,-3.7626 l 0,-12.2395 z"
         style="font-style:normal;font-variant:normal;font-weight:normal;font-stretch:normal;font-size:45.33178711px;font-family:'Montserrat Alternates';-inkscape-font-specification:'Montserrat Alternates';letter-spacing:0px;fill:#dad9d6;fill-opacity:1"
         id="path4139" />
      <path
         d="m 75.970055,1024.9622 c -6.029128,0 -12.556905,4.3519 -12.556905,12.4663 0,7.7517 5.983796,12.3756 12.466241,12.3756 3.399884,0 7.026427,-1.224 10.154321,-4.4426 l -2.991898,-3.3092 c -1.722608,2.0853 -4.30652,3.1733 -6.799768,3.1733 -2.447917,0 -4.80517,-1.0427 -6.301119,-2.9013 l 17.588734,-7.3891 -0.04533,-0.091 c -0.04533,-5.8932 -4.986497,-9.8824 -11.514274,-9.8824 z m -7.661072,12.5569 c 0,-5.3491 4.397183,-7.8877 7.933063,-7.8877 2.357253,0 4.442515,0.952 5.485146,2.9919 l -13.372877,5.7572 c -0.04533,-0.272 -0.04533,-0.544 -0.04533,-0.8614 z"
         style="font-style:normal;font-variant:normal;font-weight:normal;font-stretch:normal;font-size:45.33178711px;font-family:'Montserrat Alternates';-inkscape-font-specification:'Montserrat Alternates';letter-spacing:0px;fill:#dad9d6;fill-opacity:1"
         id="path4141" />
      <path
         d="m 97.78952,1036.3859 c 0,-4.8052 3.35455,-6.8451 6.52778,-6.8451 3.49054,0 5.53047,2.0399 5.53047,6.6637 l 0,13.2369 5.07717,0 0,-14.7782 c 0,-6.5277 -3.89854,-9.701 -9.11169,-9.701 -3.30922,0 -6.391786,1.768 -8.02373,4.7599 l 0,-4.3972 -5.077161,0 0,24.1165 5.077161,0 0,-13.0555 z"
         style="font-style:normal;font-variant:normal;font-weight:normal;font-stretch:normal;font-size:45.33178711px;font-family:'Montserrat Alternates';-inkscape-font-specification:'Montserrat Alternates';letter-spacing:0px;fill:#dad9d6;fill-opacity:1"
         id="path4143" />
      <path
         d="m 120.47737,1037.3832 c 0,7.661 5.57581,12.4209 11.37828,12.4209 2.90123,0 6.16512,-1.088 8.20505,-3.9892 l 0,3.6265 5.07716,0 0,-33.6362 -5.07716,0 0,13.2369 c -2.08526,-2.9012 -4.9865,-4.0799 -7.97839,-4.0799 -5.71181,0 -11.60494,4.3972 -11.60494,12.421 z m 12.5569,7.933 c -3.8532,0 -7.47974,-3.0372 -7.47974,-7.8424 0,-4.6692 3.35455,-8.069 7.47974,-8.069 3.80787,0 7.11709,3.3092 7.11709,8.1597 0,4.5785 -3.30922,7.7517 -7.11709,7.7517 z"
         style="font-style:normal;font-variant:normal;font-weight:normal;font-stretch:normal;font-size:45.33178711px;font-family:'Montserrat Alternates';-inkscape-font-specification:'Montserrat Alternates';letter-spacing:0px;fill:#dad9d6;fill-opacity:1"
         id="path4145" />
      <path
         d="m 165.35017,1024.9622 c -3.21855,0.091 -6.21045,2.2666 -7.79706,5.2132 l 0,-4.8505 -5.07716,0 0,24.1165 5.07716,0 0,-10.3356 c 0,-5.1679 2.35725,-9.1571 7.8424,-9.0211 l -0.0453,-5.1225 z"
         style="font-style:normal;font-variant:normal;font-weight:normal;font-stretch:normal;font-size:45.33178711px;font-family:'Montserrat Alternates';-inkscape-font-specification:'Montserrat Alternates';letter-spacing:0px;fill:#dad9d6;fill-opacity:1"
         id="path4147" />
      <path
         d="m 180.28629,1044.0016 c -0.27199,0.4533 -1.08796,1.1333 -2.26659,1.1333 -1.9946,0 -2.71991,-1.36 -2.71991,-3.6266 l 0,-23.7538 -5.07716,0 0,24.3432 c 0,5.3038 3.12789,7.7064 7.16242,7.7064 2.85591,0 4.53318,-1.4053 5.1225,-2.0853 l -2.22126,-3.7172 z"
         style="font-style:normal;font-variant:normal;font-weight:normal;font-stretch:normal;font-size:45.33178711px;font-family:'Montserrat Alternates';-inkscape-font-specification:'Montserrat Alternates';letter-spacing:0px;fill:#dad9d6;fill-opacity:1"
         id="path4149" />
    </g>
    <g
       transform="matrix(0.25250452,0,0,0.25250452,254.99578,729.54499)"
       id="g4221">
      <path
         id="path4223"
         d="m -931.74794,1131.9291 c -5.06156,0.036 -10.1952,0.6286 -15.34011,1.8319 -16.45038,3.9492 -30.39302,14.195 -39.1253,27.3947 -8.79798,13.2995 -12.45444,29.8054 -8.25087,46.305 2.82,10.7044 8.99896,20.0068 16.95703,26.6765 7.99172,6.6978 17.8948,10.8422 28.33131,11.1933 4.25912,0.2845 8.62328,-0.066 12.99457,-1.1342 9.82386,-2.4261 18.33591,-8.6106 23.70857,-16.6841 5.4032,-8.12 7.71106,-18.2867 4.96546,-28.5565 -2.04994,-7.5682 -6.95536,-14.127 -13.2623,-18.2177 -6.35369,-4.1209 -14.26098,-5.8131 -22.17347,-3.4882 -5.60098,1.6752 -10.42949,5.4711 -13.36987,10.2704 -2.96842,4.8452 -4.07474,10.8273 -2.11162,16.7387 1.35361,3.9757 4.18895,7.3734 7.69467,9.4021 3.5438,2.0509 7.8539,2.743 12.05307,1.1295 2.62473,-1.0471 4.84151,-3.078 6.10155,-5.5115 1.27942,-2.471 1.6017,-5.4219 0.30532,-8.2099 -0.77428,-1.5672 -2.13649,-2.8708 -3.69134,-3.5583 -1.5911,-0.7033 -3.43423,-0.7802 -5.07302,0.2115 -0.77314,0.5241 -1.38813,1.357 -1.65114,2.2279 -0.11103,0.3673 -0.16365,0.7517 -0.13474,1.1325 0.025,0.5457 0.21742,1.0696 0.60043,1.5147 0.27718,0.2575 0.6916,0.4475 1.06613,0.4863 0.40787,0.043 0.75156,-0.091 0.91761,-0.4316 l 0,0 c -0.27323,0.2329 -0.57113,0.1427 -0.78625,0.011 -0.23294,-0.1486 -0.43899,-0.4029 -0.47755,-0.5901 -0.18658,-0.3255 -0.21665,-0.6483 -0.16384,-0.9451 0.0482,-0.2131 0.14351,-0.4233 0.27294,-0.6209 0.31988,-0.4878 0.83655,-0.8744 1.30312,-1.003 1.02189,-0.4352 2.05352,-0.2177 2.92717,0.3428 0.9099,0.5841 1.62599,1.5311 1.92062,2.4905 0.65035,1.7814 0.28672,3.5646 -0.67378,5.0611 -0.98517,1.5349 -2.57356,2.7232 -4.26094,3.2185 -2.79804,0.8977 -5.59115,0.2886 -7.91992,-1.2553 -2.36818,-1.5698 -4.18837,-4.0685 -4.93654,-6.7922 -1.20588,-4.1737 -0.26022,-8.2746 2.01284,-11.6591 2.30429,-3.4311 5.91208,-6.0209 9.92938,-7.0415 5.79103,-1.5202 11.4828,-0.126 16.14843,3.1063 4.71305,3.265 8.25405,8.3284 9.607,13.9994 1.90606,7.8159 -0.0106,15.4525 -4.33602,21.6376 -4.35964,6.2317 -11.08591,10.8601 -18.65106,12.5443 -3.44425,0.779 -6.84492,0.9861 -10.14074,0.7027 -7.99914,-1.0326 -15.28692,-4.9805 -20.9008,-10.6576 -5.64849,-5.712 -9.50523,-13.069 -10.81124,-20.9162 -2.20213,-12.2507 1.42889,-23.8165 8.44864,-32.8326 7.09907,-9.1181 17.51805,-15.4546 28.88057,-17.2897 14.40871,-2.4769 28.12283,1.8607 38.9068,10.3267 10.90241,8.5586 18.53281,21.1183 20.7491,34.8915 2.40684,14.7005 -1.11335,29.0924 -8.66693,41.0768 -7.56139,11.9966 -19.01807,21.345 -32.34331,26.1221 l 51.32842,0 c 2.61028,-3.5082 4.98512,-7.1727 7.07217,-10.98 10.04224,-18.319 13.92876,-39.9836 9.1123,-61.5016 -4.59566,-20.4281 -16.98566,-37.8834 -33.14315,-48.9916 -12.2037,-8.3898 -26.73511,-13.2815 -41.91937,-13.172 z"
         style="color:#000000;clip-rule:nonzero;display:inline;overflow:visible;visibility:visible;opacity:1;isolation:auto;mix-blend-mode:normal;color-interpolation:sRGB;color-interpolation-filters:linearRGB;solid-color:#000000;solid-opacity:1;fill:#84be00;fill-opacity:1;fill-rule:evenodd;stroke:none;stroke-width:6.88436937;stroke-linecap:round;stroke-linejoin:miter;stroke-miterlimit:4;stroke-dasharray:none;stroke-dashoffset:0;stroke-opacity:1;color-rendering:auto;image-rendering:auto;shape-rendering:auto;text-rendering:auto;enable-background:accumulate"
         inkscape:connector-curvature="0" />
    </g>
  </g>
</svg>
